<svg width="16" height="16" viewBox="0 0 16 16" fill="none" xmlns="http://www.w3.org/2000/svg">
<path fill-rule="evenodd" clip-rule="evenodd" d="M1.5 2H14.5L15 2.5V8.003C14.6903 7.77065 14.3548 7.57501 14 7.42V3H2V12H7C7 13.0819 7.35089 14.1345 8 15H4V14H7V13H1.5L1 12.5V2.5L1.5 2Z" fill="#696969"/>
<path d="M12 8C10.9391 8 9.92172 8.42143 9.17157 9.17157C8.42143 9.92172 8 10.9391 8 12C8 13.0609 8.42143 14.0783 9.17157 14.8284C9.92172 15.5786 10.9391 16 12 16C13.0609 16 14.0783 15.5786 14.8284 14.8284C15.5786 14.0783 16 13.0609 16 12C16 10.9391 15.5786 9.92172 14.8284 9.17157C14.0783 8.42143 13.0609 8 12 8V8ZM12 15C11.2042 15 10.441 14.6839 9.87833 14.1212C9.31562 13.5585 8.9995 12.7953 8.9995 11.9995C8.9995 11.2037 9.31562 10.4405 9.87833 9.87783C10.441 9.31512 11.2042 8.999 12 8.999C12.7958 8.999 13.559 9.31512 14.1217 9.87783C14.6844 10.4405 15.0005 11.2037 15.0005 11.9995C15.0005 12.7953 14.6844 13.5585 14.1217 14.1212C13.559 14.6839 12.7958 15 12 15V15Z" fill="#696969"/>
</svg>
