<svg width="485" height="485" viewBox="0 0 485 485" fill="none" xmlns="http://www.w3.org/2000/svg">
<g clip-path="url(#clip0_49_33)">
<path d="M413.974 71.026C368.171 25.225 307.274 0 242.5 0C177.726 0 116.829 25.225 71.026 71.026C25.225 116.829 0 177.726 0 242.5C0 307.274 25.225 368.171 71.026 413.974C116.829 459.775 177.726 485 242.5 485C275.231 485 306.991 478.586 336.897 465.937L325.209 438.307C299.022 449.384 271.194 455 242.5 455C125.327 455 30 359.673 30 242.5C30 125.327 125.327 30 242.5 30C359.673 30 455 125.327 455 242.5C455 293.823 423.466 317.199 394.166 317.199C364.867 317.199 333.333 293.824 333.333 242.5C333.333 192.414 292.586 151.667 242.5 151.667C192.414 151.667 151.667 192.415 151.667 242.5C151.667 292.585 192.414 333.333 242.5 333.333C272.155 333.333 298.534 319.047 315.122 296.998C319.37 305.575 324.716 313.334 331.162 320.111C347.775 337.579 370.15 347.198 394.166 347.198C418.183 347.198 440.558 337.578 457.171 320.111C475.377 300.97 485 274.132 485 242.5C485 177.726 459.775 116.829 413.974 71.026ZM242.5 303.333C208.957 303.333 181.667 276.043 181.667 242.5C181.667 208.957 208.957 181.667 242.5 181.667C276.043 181.667 303.333 208.957 303.333 242.5C303.333 276.043 276.043 303.333 242.5 303.333Z" fill="#C3C3C3"/>
</g>
<defs>
<clipPath id="clip0_49_33">
<rect width="485" height="485" fill="white"/>
</clipPath>
</defs>
</svg>
