<svg width="490" height="490" viewBox="0 0 490 490" fill="none" xmlns="http://www.w3.org/2000/svg">
<path d="M188.854 245C188.851 249.06 187.235 252.952 184.363 255.821L128.217 311.967C125.314 314.671 121.475 316.144 117.508 316.074C113.541 316.004 109.756 314.397 106.95 311.591C104.145 308.786 102.538 305.001 102.468 301.034C102.398 297.067 103.87 293.228 106.575 290.325L151.9 245L106.575 199.675C105.071 198.273 103.864 196.583 103.027 194.704C102.19 192.826 101.74 190.798 101.704 188.742C101.668 186.686 102.046 184.644 102.816 182.737C103.586 180.831 104.732 179.099 106.186 177.645C107.64 176.191 109.372 175.044 111.279 174.274C113.186 173.504 115.228 173.126 117.284 173.162C119.34 173.198 121.368 173.648 123.246 174.485C125.124 175.322 126.815 176.529 128.217 178.033L184.363 234.179C187.241 237.038 188.854 240.937 188.854 245V245ZM229.688 285.833C225.626 285.833 221.732 287.447 218.86 290.318C215.988 293.19 214.375 297.085 214.375 301.146C214.375 305.207 215.988 309.102 218.86 311.973C221.732 314.845 225.626 316.458 229.688 316.458H331.771C335.832 316.458 339.727 314.845 342.598 311.973C345.47 309.102 347.083 305.207 347.083 301.146C347.083 297.085 345.47 293.19 342.598 290.318C339.727 287.447 335.832 285.833 331.771 285.833H229.688Z" fill="#C3C3C3"/>
<path fill-rule="evenodd" clip-rule="evenodd" d="M0 96.9792C0 77.2567 16.0067 61.25 35.7292 61.25H454.271C473.993 61.25 490 77.2567 490 96.9792V393.021C490 402.497 486.236 411.585 479.535 418.285C472.835 424.986 463.747 428.75 454.271 428.75H35.7292C26.2532 428.75 17.1653 424.986 10.4648 418.285C3.76431 411.585 0 402.497 0 393.021L0 96.9792ZM35.7292 91.875C34.3755 91.875 33.0772 92.4128 32.12 93.37C31.1628 94.3272 30.625 95.6255 30.625 96.9792V393.021C30.625 395.838 32.9117 398.125 35.7292 398.125H454.271C455.625 398.125 456.923 397.587 457.88 396.63C458.837 395.673 459.375 394.375 459.375 393.021V96.9792C459.375 95.6255 458.837 94.3272 457.88 93.37C456.923 92.4128 455.625 91.875 454.271 91.875H35.7292Z" fill="#C3C3C3"/>
</svg>
