<svg width="490" height="490" viewBox="0 0 490 490" fill="none" xmlns="http://www.w3.org/2000/svg">
<path d="M244.95 467.05C367.471 467.05 467 367.679 467 245C467 122.479 367.629 22.95 244.95 22.95C181.012 22.95 123.374 50.0369 82.9008 93.1871C45.735 132.873 22.9 186.259 22.9 244.842C22.9 367.679 122.429 467.05 244.95 467.05ZM167.469 332.875C169.516 325.631 171.406 318.229 173.768 310.985C176.445 302.638 178.65 301.536 186.367 305.631C199.595 312.56 213.454 316.339 228.099 318.229C237.548 319.332 246.84 318.387 255.501 314.607C271.879 307.52 274.399 288.623 260.541 277.126C255.816 273.189 250.462 270.355 244.95 267.992C230.619 261.693 215.658 256.969 202.272 248.78C180.382 235.708 166.366 217.598 168.099 190.984C169.988 160.747 186.997 142.007 214.713 131.928C226.052 127.833 226.21 127.991 226.21 116.022C226.21 111.927 226.21 107.99 226.21 103.896C226.367 94.9193 227.942 93.3445 236.918 93.0296C239.753 92.8721 242.43 93.0296 245.265 93.0296C264.32 93.0296 264.32 93.0296 264.478 112.085C264.478 125.628 264.478 125.628 278.021 127.676C288.258 129.25 298.179 132.243 307.628 136.495C312.825 138.857 314.872 142.479 313.297 147.991C310.935 156.18 308.73 164.527 306.053 172.716C303.533 180.432 301.171 181.535 293.77 177.912C278.809 170.668 263.218 167.676 246.84 168.621C242.588 168.779 238.336 169.408 234.241 171.141C220.068 177.283 217.706 193.031 229.832 202.795C235.974 207.677 242.903 211.299 250.147 214.291C262.746 219.488 275.344 224.527 287.313 231.142C325.423 252.244 335.66 299.961 308.888 332.56C299.124 344.371 286.525 352.245 271.879 356.34C265.423 358.072 262.588 361.537 262.903 368.151C263.218 374.765 262.903 381.222 262.903 387.836C262.903 393.663 259.911 396.813 254.084 396.97C246.997 397.128 239.911 397.128 232.981 396.97C226.84 396.813 223.847 393.348 223.847 387.364C223.847 382.639 223.69 377.757 223.69 373.033C223.532 362.482 223.217 362.009 213.139 360.434C200.068 358.387 187.312 355.395 175.5 349.568C165.736 345.001 164.792 342.639 167.469 332.875Z" fill="#C3C3C3"/>
</svg>
