<svg width="32" height="32" viewBox="0 0 32 32" fill="none" xmlns="http://www.w3.org/2000/svg">
<g clip-path="url(#clip0_32_3)">
<path d="M28 20H26V22H28V28H4V22H6V20H4C3.46976 20.0006 2.96142 20.2116 2.58649 20.5865C2.21155 20.9614 2.00064 21.4698 2 22V28C2.00064 28.5302 2.21155 29.0386 2.58649 29.4135C2.96142 29.7884 3.46976 29.9994 4 30H28C28.5302 29.9994 29.0386 29.7884 29.4135 29.4135C29.7884 29.0386 29.9994 28.5302 30 28V22C29.9994 21.4698 29.7884 20.9614 29.4135 20.5865C29.0386 20.2116 28.5302 20.0006 28 20V20Z" fill="#C4C4C4"/>
<path d="M7 26C7.55228 26 8 25.5523 8 25C8 24.4477 7.55228 24 7 24C6.44772 24 6 24.4477 6 25C6 25.5523 6.44772 26 7 26Z" fill="#C4C4C4"/>
<path d="M22.707 7.293L17.707 2.293C17.5195 2.10545 17.2652 2.00006 17 2H11C10.4698 2.00061 9.9614 2.21152 9.58646 2.58646C9.21152 2.9614 9.00061 3.46975 9 4V20C9.00061 20.5302 9.21152 21.0386 9.58646 21.4135C9.9614 21.7885 10.4698 21.9994 11 22H21C21.5302 21.9994 22.0386 21.7885 22.4135 21.4135C22.7885 21.0386 22.9994 20.5302 23 20V8C22.9999 7.73481 22.8946 7.48049 22.707 7.293V7.293ZM20.5857 8H17V4.4141L20.5857 8ZM11 20V4H15V8C15.0006 8.53025 15.2115 9.0386 15.5865 9.41354C15.9614 9.78848 16.4698 9.99939 17 10H21V20H11Z" fill="#C4C4C4"/>
</g>
<defs>
<clipPath id="clip0_32_3">
<rect width="32" height="32" fill="white"/>
</clipPath>
</defs>
</svg>
