<svg width="43" height="43" viewBox="0 0 43 43" fill="none" xmlns="http://www.w3.org/2000/svg">
<path d="M34.5974 6.84311C33.0979 6.01945 31.3823 5.54538 29.5505 5.54538C26.3122 5.54538 23.4186 7.01814 21.5019 9.32691C19.5811 7.01814 16.6884 5.54538 13.4495 5.54538C11.6217 5.54538 9.90409 6.01945 8.40325 6.84311C5.18004 8.62772 3 12.0583 3 16.0012C3 17.1257 3.18334 18.2086 3.51698 19.223C3.6601 19.8688 3.905 20.5315 4.21752 21.1973H10.967L12.6609 18.3612C12.9078 17.9451 13.3531 17.6894 13.8373 17.679C14.2779 17.6496 14.7767 17.9102 15.0386 18.3165L17.4827 22.0847L20.4888 13.964C20.6919 13.4147 21.2145 13.05 21.8003 13.0487H21.803C22.3885 13.0487 22.9124 13.4133 23.1164 13.9613L25.8101 21.1973H30.4425C31.221 21.1973 31.8433 21.8246 31.8433 22.5974C31.8433 23.3717 31.2208 23.9983 30.4425 23.9983H24.8388C24.2535 23.9983 23.7307 23.6332 23.524 23.0872L21.809 18.4773L19.1468 25.6782C18.9635 26.1734 18.5169 26.5237 17.9886 26.5839C17.9367 26.5893 17.8848 26.592 17.8354 26.592C17.3647 26.592 16.9207 26.354 16.6588 25.9546L13.9173 21.7293L12.9678 23.3169C12.7112 23.7424 12.2544 24.001 11.764 24.001H5.92237C10.9241 30.8058 21.5048 37.4547 21.5048 37.4547C21.5048 37.4547 37.6921 27.2844 39.4855 19.223C39.8167 18.2086 40 17.1257 40 16.0012C40 12.0583 37.8179 8.62772 34.5974 6.84311Z" fill="#C4C4C4"/>
</svg>
