<svg width="512" height="512" viewBox="0 0 512 512" fill="none" xmlns="http://www.w3.org/2000/svg">
<path d="M464.859 80.3004H47.1408C21.1485 80.3004 0 101.449 0 127.441V384.559C0 410.551 21.1485 431.7 47.1408 431.7H464.859C490.852 431.7 512 410.551 512 384.559V127.441C512 101.447 490.852 80.3004 464.859 80.3004ZM482.537 384.559C482.537 394.305 474.608 402.237 464.859 402.237H47.1408C37.3925 402.237 29.463 394.305 29.463 384.559V127.441C29.463 117.695 37.3925 109.763 47.1408 109.763H464.859C474.608 109.763 482.537 117.695 482.537 127.441V384.559Z" fill="#C3C3C3"/>
<path d="M424.346 164.409H288.947C282.438 164.409 277.162 169.687 277.162 176.195C277.162 182.702 282.438 187.98 288.947 187.98H424.346C430.855 187.98 436.131 182.702 436.131 176.195C436.131 169.687 430.855 164.409 424.346 164.409Z" fill="#C3C3C3"/>
<path d="M424.346 324.02H288.947C282.438 324.02 277.162 329.296 277.162 335.805C277.162 342.313 282.438 347.591 288.947 347.591H424.346C430.855 347.591 436.131 342.313 436.131 335.805C436.131 329.296 430.855 324.02 424.346 324.02Z" fill="#C3C3C3"/>
<path d="M424.346 232.583H342.403C335.896 232.583 330.618 237.861 330.618 244.368C330.618 250.875 335.896 256.153 342.403 256.153H424.346C430.855 256.153 436.131 250.875 436.131 244.368C436.131 237.861 430.855 232.583 424.346 232.583Z" fill="#C3C3C3"/>
<path d="M424.346 278.3H342.403C335.896 278.3 330.618 283.577 330.618 290.085C330.618 296.594 335.896 301.87 342.403 301.87H424.346C430.855 301.87 436.131 296.594 436.131 290.085C436.131 283.577 430.855 278.3 424.346 278.3Z" fill="#C3C3C3"/>
<path d="M167.277 261.506C200.676 261.506 227.849 234.323 227.849 200.912C227.849 167.499 200.676 140.317 167.277 140.317C133.868 140.317 106.687 167.499 106.687 200.912C106.687 234.323 133.868 261.506 167.277 261.506ZM167.277 169.781C184.43 169.781 198.386 183.747 198.386 200.914C198.386 218.079 184.432 232.045 167.277 232.045C150.114 232.045 136.15 218.079 136.15 200.914C136.15 183.747 150.114 169.781 167.277 169.781Z" fill="#C3C3C3"/>
<path d="M190.718 272.395H144.202C111.612 272.395 85.0989 298.906 85.0989 331.494V356.952C85.0989 365.088 91.6928 371.683 99.8304 371.683C107.968 371.683 114.562 365.088 114.562 356.952V331.494C114.562 315.154 127.86 301.858 144.202 301.858H190.718C207.06 301.858 220.358 315.152 220.358 331.494V356.952C220.358 365.088 226.951 371.683 235.089 371.683C243.227 371.683 249.821 365.088 249.821 356.952V331.494C249.821 298.906 223.306 272.395 190.718 272.395Z" fill="#C3C3C3"/>
</svg>
