<svg width="16" height="16" viewBox="0 0 16 16" fill="none" xmlns="http://www.w3.org/2000/svg">
<g clip-path="url(#clip0_15_5)">
<path fill-rule="evenodd" clip-rule="evenodd" d="M1.5 2H14.5L15 2.5V8.003C14.6903 7.77065 14.3548 7.57501 14 7.42V3H2V12H7C7 13.0819 7.35089 14.1345 8 15H4V14H7V13H1.5L1 12.5V2.5L1.5 2Z" fill="#428454"/>
<path d="M12 8C12.367 8 12.721 8.047 13.063 8.14C13.403 8.234 13.721 8.37 14.016 8.547C14.31 8.724 14.579 8.932 14.824 9.172C15.069 9.412 15.279 9.681 15.454 9.98C15.7222 10.4413 15.8961 10.9513 15.9656 11.4804C16.0351 12.0094 15.9989 12.5471 15.859 13.062C15.766 13.404 15.63 13.722 15.453 14.016C15.2769 14.3088 15.0671 14.58 14.828 14.824C14.588 15.069 14.319 15.279 14.02 15.454C13.5587 15.7222 13.0487 15.8962 12.5196 15.9657C11.9906 16.0352 11.4529 15.999 10.938 15.859C10.6029 15.7681 10.2819 15.6315 9.98401 15.453C9.69123 15.2769 9.42005 15.0671 9.17601 14.828C8.93057 14.5883 8.71865 14.3165 8.54601 14.02C8.27766 13.5587 8.10367 13.0487 8.03414 12.5197C7.96462 11.9906 8.00094 11.4529 8.14101 10.938C8.23401 10.596 8.37001 10.278 8.54701 9.984C8.72401 9.69 8.93201 9.421 9.17201 9.176C9.41201 8.931 9.68101 8.721 9.98001 8.546C10.5935 8.18923 11.2903 8.00087 12 8V8ZM14 11.988L11 10V14L14 11.988Z" fill="#428454"/>
</g>
<defs>
<clipPath id="clip0_15_5">
<rect width="16" height="16" fill="white"/>
</clipPath>
</defs>
</svg>
