<?xml version="1.0" standalone="no"?>
<!DOCTYPE svg PUBLIC "-//W3C//DTD SVG 20010904//EN"
 "http://www.w3.org/TR/2001/REC-SVG-20010904/DTD/svg10.dtd">
<svg version="1.0" xmlns="http://www.w3.org/2000/svg"
 width="307.000000pt" height="307.000000pt" viewBox="0 0 307.000000 307.000000"
 preserveAspectRatio="xMidYMid meet">

<g transform="translate(0.000000,307.000000) scale(0.100000,-0.100000)"
fill="#000000" stroke="none">
<path d="M588 2723 l-3 -228 -232 -3 -233 -2 0 -1190 0 -1190 1195 0 1195 0 0
230 0 230 235 0 235 0 0 1190 0 1190 -1195 0 -1195 0 -2 -227z m2260 -960 l2
-1053 -170 0 -170 0 0 890 0 890 -892 2 -893 3 -3 150 c-1 82 0 155 2 162 4
11 203 13 1063 11 l1058 -3 3 -1052z m-520 -465 l2 -1008 -1015 0 -1015 0 0
1003 c0 552 3 1007 7 1010 3 4 459 6 1012 5 l1006 -3 3 -1007z"/>
<path d="M590 1405 l0 -835 838 2 837 3 0 65 0 65 -772 3 -773 2 0 765 0 765
-65 0 -65 0 0 -835z"/>
</g>
</svg>
