<svg width="24" height="24" viewBox="0 0 24 24" fill="none" xmlns="http://www.w3.org/2000/svg">
<path fill-rule="evenodd" clip-rule="evenodd" d="M2.25 12C2.25 6.615 6.615 2.25 12 2.25C17.385 2.25 21.75 6.615 21.75 12C21.75 17.385 17.385 21.75 12 21.75C6.615 21.75 2.25 17.385 2.25 12ZM9 8.25C8.80109 8.25 8.61032 8.32902 8.46967 8.46967C8.32902 8.61032 8.25 8.80109 8.25 9V15C8.25 15.414 8.586 15.75 9 15.75H9.75C9.94891 15.75 10.1397 15.671 10.2803 15.5303C10.421 15.3897 10.5 15.1989 10.5 15V9C10.5 8.80109 10.421 8.61032 10.2803 8.46967C10.1397 8.32902 9.94891 8.25 9.75 8.25H9ZM14.25 8.25C14.0511 8.25 13.8603 8.32902 13.7197 8.46967C13.579 8.61032 13.5 8.80109 13.5 9V15C13.5 15.414 13.836 15.75 14.25 15.75H15C15.1989 15.75 15.3897 15.671 15.5303 15.5303C15.671 15.3897 15.75 15.1989 15.75 15V9C15.75 8.80109 15.671 8.61032 15.5303 8.46967C15.3897 8.32902 15.1989 8.25 15 8.25H14.25Z" fill="#424242"/>
</svg>
