<svg width="410" height="410" viewBox="0 0 410 410" fill="none" xmlns="http://www.w3.org/2000/svg">
<path d="M348.5 105.319H304.681V69.4438C304.681 57.8223 300.065 46.6768 291.847 38.4592C283.629 30.2416 272.484 25.625 260.863 25.625H69.4438C57.8223 25.625 46.6768 30.2416 38.4592 38.4592C30.2416 46.6768 25.625 57.8223 25.625 69.4438V260.863C25.6588 272.474 30.2863 283.599 38.4966 291.81C46.7068 300.02 57.8327 304.647 69.4438 304.681H105.319V348.5C105.352 357.96 109.107 367.027 115.773 373.741C122.438 380.454 131.478 384.274 140.938 384.375H348.5C358.004 384.341 367.11 380.551 373.83 373.83C380.551 367.11 384.341 358.004 384.375 348.5V140.938C384.274 131.478 380.454 122.438 373.741 115.773C367.027 109.107 357.96 105.352 348.5 105.319ZM69.4438 280.722C64.1767 280.722 59.1254 278.63 55.4011 274.905C51.6767 271.181 49.5844 266.13 49.5844 260.863V69.4438C49.5674 66.831 50.0694 64.2409 51.0614 61.8238C52.0534 59.4067 53.5156 57.2106 55.3631 55.3631C57.2106 53.5156 59.4067 52.0534 61.8238 51.0614C64.2409 50.0694 66.831 49.5674 69.4438 49.5844H260.863C266.13 49.5844 271.181 51.6767 274.905 55.4011C278.63 59.1254 280.722 64.1767 280.722 69.4438V105.319H140.938C131.522 105.419 122.52 109.204 115.862 115.862C109.204 122.52 105.419 131.522 105.319 140.938V280.722H69.4438ZM360.416 348.5C360.416 351.66 359.16 354.691 356.926 356.926C354.691 359.16 351.66 360.416 348.5 360.416H140.938C137.777 360.416 134.746 359.16 132.512 356.926C130.277 354.691 129.022 351.66 129.022 348.5V140.938C129.022 137.777 130.277 134.746 132.512 132.512C134.746 130.277 137.777 129.022 140.938 129.022H348.5C351.66 129.022 354.691 130.277 356.926 132.512C359.16 134.746 360.416 137.777 360.416 140.938V348.5Z" fill="#0B0B0B"/>
</svg>
