<svg width="36" height="36" viewBox="0 0 36 36" fill="none" xmlns="http://www.w3.org/2000/svg">
<g clip-path="url(#clip0_32_39)">
<path d="M23.08 23.07H12.08V24.57H23.83C24.0289 24.57 24.2197 24.491 24.3603 24.3503C24.501 24.2097 24.58 24.0189 24.58 23.82V11.33H23.08V23.07Z" fill="#0B0B0B"/>
<path d="M32.2 18.15C32.4122 18.15 32.6157 18.0657 32.7657 17.9157C32.9157 17.7657 33 17.5622 33 17.35C33 17.1378 32.9157 16.9343 32.7657 16.7843C32.6157 16.6343 32.4122 16.55 32.2 16.55H30V11.15H32.2C32.4122 11.15 32.6157 11.0657 32.7657 10.9157C32.9157 10.7657 33 10.5622 33 10.35C33 10.1378 32.9157 9.93434 32.7657 9.78431C32.6157 9.63429 32.4122 9.55 32.2 9.55H30V8.1C30 7.54305 29.7788 7.0089 29.3849 6.61508C28.9911 6.22125 28.457 6 27.9 6H26.35V3.8C26.35 3.58783 26.2657 3.38434 26.1157 3.23431C25.9657 3.08429 25.7622 3 25.55 3C25.3378 3 25.1343 3.08429 24.9843 3.23431C24.8343 3.38434 24.75 3.58783 24.75 3.8V6H19.35V3.8C19.35 3.58783 19.2657 3.38434 19.1157 3.23431C18.9657 3.08429 18.7622 3 18.55 3C18.3378 3 18.1343 3.08429 17.9843 3.23431C17.8343 3.38434 17.75 3.58783 17.75 3.8V6H12.35V3.8C12.35 3.58783 12.2657 3.38434 12.1157 3.23431C11.9657 3.08429 11.7622 3 11.55 3C11.3378 3 11.1343 3.08429 10.9843 3.23431C10.8343 3.38434 10.75 3.58783 10.75 3.8V6H8.1C7.54305 6 7.0089 6.22125 6.61508 6.61508C6.22125 7.0089 6 7.54305 6 8.1V9.55H3.8C3.58783 9.55 3.38434 9.63429 3.23431 9.78431C3.08429 9.93434 3 10.1378 3 10.35C3 10.5622 3.08429 10.7657 3.23431 10.9157C3.38434 11.0657 3.58783 11.15 3.8 11.15H6V16.55H3.8C3.58783 16.55 3.38434 16.6343 3.23431 16.7843C3.08429 16.9343 3 17.1378 3 17.35C3 17.5622 3.08429 17.7657 3.23431 17.9157C3.38434 18.0657 3.58783 18.15 3.8 18.15H6V23.55H3.8C3.58783 23.55 3.38434 23.6343 3.23431 23.7843C3.08429 23.9343 3 24.1378 3 24.35C3 24.5622 3.08429 24.7657 3.23431 24.9157C3.38434 25.0657 3.58783 25.15 3.8 25.15H6V27.9C6 28.457 6.22125 28.9911 6.61508 29.3849C7.0089 29.7788 7.54305 30 8.1 30H10.75V32.2C10.75 32.4122 10.8343 32.6157 10.9843 32.7657C11.1343 32.9157 11.3378 33 11.55 33C11.7622 33 11.9657 32.9157 12.1157 32.7657C12.2657 32.6157 12.35 32.4122 12.35 32.2V30H17.75V32.2C17.75 32.4122 17.8343 32.6157 17.9843 32.7657C18.1343 32.9157 18.3378 33 18.55 33C18.7622 33 18.9657 32.9157 19.1157 32.7657C19.2657 32.6157 19.35 32.4122 19.35 32.2V30H24.75V32.2C24.75 32.4122 24.8343 32.6157 24.9843 32.7657C25.1343 32.9157 25.3378 33 25.55 33C25.7622 33 25.9657 32.9157 26.1157 32.7657C26.2657 32.6157 26.35 32.4122 26.35 32.2V30H27.9C28.457 30 28.9911 29.7788 29.3849 29.3849C29.7788 28.9911 30 28.457 30 27.9V25.15H32.2C32.4122 25.15 32.6157 25.0657 32.7657 24.9157C32.9157 24.7657 33 24.5622 33 24.35C33 24.1378 32.9157 23.9343 32.7657 23.7843C32.6157 23.6343 32.4122 23.55 32.2 23.55H30V18.15H32.2ZM28 27.9C28 27.9265 27.9895 27.952 27.9707 27.9707C27.952 27.9895 27.9265 28 27.9 28H8.1C8.07348 28 8.04804 27.9895 8.02929 27.9707C8.01054 27.952 8 27.9265 8 27.9V8.1C8 8.07348 8.01054 8.04804 8.02929 8.02929C8.04804 8.01054 8.07348 8 8.1 8H27.9C27.9265 8 27.952 8.01054 27.9707 8.02929C27.9895 8.04804 28 8.07348 28 8.1V27.9Z" fill="#0B0B0B"/>
</g>
<defs>
<clipPath id="clip0_32_39">
<rect width="36" height="36" fill="white"/>
</clipPath>
</defs>
</svg>
