<svg width="512" height="512" viewBox="0 0 512 512" fill="none" xmlns="http://www.w3.org/2000/svg">
<g clip-path="url(#clip0_49_50)">
<path d="M454.613 0H57.387C25.707 0 0 25.707 0 57.387V454.614C0 486.293 25.707 512 57.387 512H454.614C486.294 512 512.001 486.293 512.001 454.613V57.387C512 25.707 486.293 0 454.613 0ZM490.667 454.613C490.667 474.56 474.56 490.666 454.614 490.666H57.387C37.44 490.666 21.334 474.559 21.334 454.613V57.387C21.334 37.44 37.441 21.334 57.387 21.334H454.614C474.561 21.334 490.667 37.441 490.667 57.387V454.613Z" fill="#0B0B0B"/>
<path d="M186.667 148.267H160V359.467H186.667V148.267Z" fill="#0B0B0B"/>
<path d="M350.827 138.667H324.267V226.134H323.627C317.014 213.974 302.827 204.907 282.987 204.907C249.92 204.907 221.227 233.92 221.227 285.014C221.227 332.054 246.72 362.027 280.427 362.027C302.507 362.027 318.827 349.867 326.08 334.934H326.933L328.533 359.467H352.106C351.466 349.44 350.826 333.76 350.826 321.28V138.667H350.827ZM324.267 298.773C324.374 302.613 323.947 306.346 322.987 310.08C317.654 331.093 302.72 341.12 287.574 341.12C261.014 341.12 247.681 315.413 247.681 284.373C247.681 252.053 261.868 226.133 288.214 226.133C306.561 226.133 319.894 240.213 323.307 257.173C323.947 260.906 324.267 264.64 324.267 268.48V298.773Z" fill="#0B0B0B"/>
</g>
<defs>
<clipPath id="clip0_49_50">
<rect width="512" height="512" fill="white"/>
</clipPath>
</defs>
</svg>
