<svg width="43" height="43" viewBox="0 0 43 43" fill="none" xmlns="http://www.w3.org/2000/svg">
<path d="M21.1484 10.4312C18.2653 10.4312 15.9137 12.7828 15.9137 15.6659C15.9137 18.0248 17.4863 20.0196 19.634 20.6749V37.8203C19.634 38.6576 20.3184 39.3347 21.1484 39.3347C21.9784 39.3347 22.6627 38.6503 22.6627 37.8931V20.6749C24.8105 20.0196 26.383 18.0175 26.383 15.6659C26.383 12.7828 24.0314 10.4312 21.1484 10.4312ZM21.1484 17.8646C19.9325 17.8646 18.9497 16.8817 18.9497 15.6659C18.9497 14.4501 19.9325 13.4672 21.1484 13.4672C22.3642 13.4672 23.3471 14.4501 23.3471 15.6659C23.3471 16.8817 22.3642 17.8646 21.1484 17.8646Z" fill="#0B0B0B"/>
<path d="M34.5007 4.13365C33.8964 3.52937 32.9863 3.52937 32.3748 4.06084C31.7705 4.66512 31.7705 5.57518 32.302 6.18674C37.2308 11.4214 37.2308 19.9978 32.302 25.2324C31.7705 25.8367 31.7705 26.8268 32.3748 27.3583C32.666 27.6787 33.7435 28.1155 34.5007 27.2054C40.4998 20.8277 40.4998 10.5041 34.5007 4.13365Z" fill="#0B0B0B"/>
<path d="M29.9504 8.98969C29.3461 8.38542 28.436 8.38542 27.8245 8.91689C27.2202 9.52117 27.2202 10.4312 27.7517 11.0428C30.1834 13.6201 30.1834 17.7991 27.7517 20.3763C27.2202 20.9806 27.2202 21.9708 27.8245 22.5022C28.0065 22.7206 29.1641 23.3031 29.9504 22.3493C33.4377 18.7018 33.4377 12.71 29.9504 8.98969Z" fill="#0B0B0B"/>
<path d="M9.9947 6.17941C10.5262 5.57513 10.5262 4.66507 9.9947 4.13359C9.39042 3.60212 8.40028 3.60212 7.8688 4.2064C1.87698 10.5768 1.87698 20.9005 7.8688 27.2709C8.84439 28.1373 9.61612 27.5767 9.91461 27.3437C10.5189 26.7394 10.5189 25.8294 9.98742 25.2178C5.05855 19.9904 5.05855 11.4141 9.9947 6.17941Z" fill="#0B0B0B"/>
<path d="M14.545 8.9897C13.9407 8.45823 12.9506 8.45823 12.4191 9.06251C9.00458 12.7027 9.00458 18.7018 12.4191 22.4149C13.4384 23.3249 14.2829 22.7935 14.545 22.5678C15.1493 21.9635 15.1493 21.0534 14.6178 20.4419C12.1861 17.8646 12.1861 13.6856 14.6178 11.1083C15.1493 10.504 15.1493 9.52118 14.545 8.9897Z" fill="#0B0B0B"/>
</svg>
