<svg width="36" height="36" viewBox="0 0 36 36" fill="none" xmlns="http://www.w3.org/2000/svg">
<g clip-path="url(#clip0_32_8)">
<path d="M12 12H8V20H12V12Z" fill="#0B0B0B"/>
<path d="M20 12H16V20H20V12Z" fill="#0B0B0B"/>
<path d="M28 12H24V20H28V12Z" fill="#0B0B0B"/>
<path d="M15.1002 27H4.01541V17H2V27C2 27.5304 2.21234 28.0391 2.5903 28.4142C2.96826 28.7893 3.48089 29 4.01541 29H16.7226V25.55H19V24H15.1002V27Z" fill="#0B0B0B"/>
<path d="M32 7H4C3.46957 7 2.96086 7.21071 2.58579 7.58579C2.21071 7.96086 2 8.46957 2 9V13H4V9H32V13H34V9C34 8.46957 33.7893 7.96086 33.4142 7.58579C33.0391 7.21071 32.5304 7 32 7V7Z" fill="#0B0B0B"/>
<path d="M32 27H19V29H32C32.5304 29 33.0391 28.7893 33.4142 28.4142C33.7893 28.0391 34 27.5304 34 27V17H32V27Z" fill="#0B0B0B"/>
</g>
<defs>
<clipPath id="clip0_32_8">
<rect width="36" height="36" fill="white"/>
</clipPath>
</defs>
</svg>
