<svg width="410" height="410" viewBox="0 0 410 410" fill="none" xmlns="http://www.w3.org/2000/svg">
<path d="M78.4 46.2667L78 76.6667L47.0667 77.0667L16 77.3333V236V394.667H175.333H334.667V364V333.333H366H397.333V174.667V16H238H78.6667L78.4 46.2667ZM379.733 174.267L380 314.667H357.333H334.667V196V77.3333L215.733 77.0667L96.6667 76.6667L96.2667 56.6667C96.1333 45.7333 96.2667 36 96.5333 35.0667C97.0667 33.6 123.6 33.3333 238.267 33.6L379.333 34L379.733 174.267ZM310.4 236.267L310.667 370.667H175.333H40V236.933C40 163.333 40.4 102.667 40.9333 102.267C41.3333 101.733 102.133 101.467 175.867 101.6L310 102L310.4 236.267Z" fill="#7D2424"/>
<path d="M78.6667 222V333.333L190.4 333.067L302 332.667V324V315.333L199.067 314.933L96 314.667V212.667V110.667H87.3333H78.6667V222Z" fill="#7D2424"/>
</svg>
