<svg xmlns="http://www.w3.org/2000/svg" viewBox="0 0 480 320" fill="none"><style>.pn{fill:var(--vscode-editor-background,#1e1e1e);stroke:var(--vscode-widget-border,#454545);stroke-width:2}.ln{fill:var(--vscode-foreground,#cccccc);opacity:.3}.ls{fill:none;stroke:var(--vscode-foreground,#cccccc);stroke-opacity:.45;stroke-width:2;stroke-linecap:round;stroke-linejoin:round}.ac{fill:var(--vscode-textLink-foreground,#3794ff)}.gw{fill:none;stroke:var(--vscode-textLink-foreground,#3794ff);stroke-width:12;stroke-linejoin:round}.gs{fill:none;stroke:currentColor;stroke-width:2;stroke-linecap:round;stroke-linejoin:round}.ca{color:var(--vscode-textLink-foreground,#3794ff)}.cg{color:var(--vscode-testing-iconPassed,#3fb950)}.cw{color:var(--vscode-editorWarning-foreground,#cca700)}.o{transform-box:fill-box;transform-origin:center}.d{stroke-dasharray:100 110}@keyframes s8-cg{0%,56%{opacity:.04}60%{opacity:.4}72%,100%{opacity:.12}}@keyframes s8-l0{0%,10%{stroke-dashoffset:104;opacity:1}18%,92%{stroke-dashoffset:0;opacity:1}96%,100%{stroke-dashoffset:0;opacity:0}}@keyframes s8-u0{0%,4%{transform:translate(-60px,-30px);opacity:0}12%,92%{transform:none;opacity:1}97%,100%{transform:translate(-60px,-30px);opacity:0}}@keyframes s8-r0{0%,34%{opacity:0;transform:scale(0)}37%{opacity:1;transform:scale(1.15)}39%,92%{opacity:1;transform:scale(1)}96%,100%{opacity:0;transform:scale(0)}}@keyframes s8-l1{0%,18%{stroke-dashoffset:104;opacity:1}26%,92%{stroke-dashoffset:0;opacity:1}96%,100%{stroke-dashoffset:0;opacity:0}}@keyframes s8-u1{0%,12%{transform:translate(60px,-30px);opacity:0}20%,92%{transform:none;opacity:1}97%,100%{transform:translate(60px,-30px);opacity:0}}@keyframes s8-r1{0%,42%{opacity:0;transform:scale(0)}45%{opacity:1;transform:scale(1.15)}47%,92%{opacity:1;transform:scale(1)}96%,100%{opacity:0;transform:scale(0)}}@keyframes s8-l2{0%,26%{stroke-dashoffset:104;opacity:1}34%,92%{stroke-dashoffset:0;opacity:1}96%,100%{stroke-dashoffset:0;opacity:0}}@keyframes s8-u2{0%,20%{transform:translate(0px,50px);opacity:0}28%,92%{transform:none;opacity:1}97%,100%{transform:translate(0px,50px);opacity:0}}@keyframes s8-r2{0%,50%{opacity:0;transform:scale(0)}53%{opacity:1;transform:scale(1.15)}55%,92%{opacity:1;transform:scale(1)}96%,100%{opacity:0;transform:scale(0)}}@media (prefers-reduced-motion:reduce){*{animation:none!important}}</style><rect class="ac" x="88" y="36" width="304" height="248" rx="28" opacity=".05"/><rect class="ls" x="88" y="36" width="304" height="248" rx="28" style="stroke-dasharray:6 6"/><rect class="gw" x="192" y="120" width="96" height="80" rx="12" style="opacity:.12;animation:s8-cg 8s ease-in-out infinite"/><rect class="pn" x="196" y="124" width="88" height="72" rx="10"/><rect class="ac" x="208" y="136" width="16" height="16" rx="4"/><rect class="ln" x="230" y="139" width="42" height="6" rx="3"/><rect class="ln" x="230" y="149" width="28" height="6" rx="3"/><rect class="ln" x="208" y="166" width="64" height="6" rx="3"/><rect class="ln" x="208" y="178" width="48" height="6" rx="3"/><path class="ls d" pathLength="100" d="M157 110L196 138" style="animation:s8-l0 8s ease-in-out infinite"/><g class="ca" style="animation:s8-u0 8s ease-in-out infinite"><circle cx="136" cy="100" r="22" fill="currentColor" opacity=".18"/><circle cx="136" cy="100" r="22" stroke="currentColor" stroke-width="2"/><circle cx="136" cy="95" r="7" fill="currentColor"/><path d="M125 114a11 9 0 0 1 22 0z" fill="currentColor"/><g class="o" style="animation:s8-r0 8s ease-in-out infinite"><g transform="translate(153 116)"><circle class="pn" r="9"/><path class="gs" d="M-5 3l-1-7 4 3 2-4 2 4 4-3-1 7z" style="stroke-width:1.6"/></g></g></g><path class="ls d" pathLength="100" d="M323 110L284 138" style="animation:s8-l1 8s ease-in-out infinite"/><g class="cg" style="animation:s8-u1 8s ease-in-out infinite"><circle cx="344" cy="100" r="22" fill="currentColor" opacity=".18"/><circle cx="344" cy="100" r="22" stroke="currentColor" stroke-width="2"/><circle cx="344" cy="95" r="7" fill="currentColor"/><path d="M333 114a11 9 0 0 1 22 0z" fill="currentColor"/><g class="o" style="animation:s8-r1 8s ease-in-out infinite"><g transform="translate(361 116)"><circle class="pn" r="9"/><path class="gs" d="M0-5l5 2v3c0 3-2 5-5 6c-3-1-5-3-5-6v-3z" style="stroke-width:1.6"/></g></g></g><path class="ls d" pathLength="100" d="M240 222V196" style="animation:s8-l2 8s ease-in-out infinite"/><g class="cw" style="animation:s8-u2 8s ease-in-out infinite"><circle cx="240" cy="244" r="22" fill="currentColor" opacity=".18"/><circle cx="240" cy="244" r="22" stroke="currentColor" stroke-width="2"/><circle cx="240" cy="239" r="7" fill="currentColor"/><path d="M229 258a11 9 0 0 1 22 0z" fill="currentColor"/><g class="o" style="animation:s8-r2 8s ease-in-out infinite"><g transform="translate(257 260)"><circle class="pn" r="9"/><path class="gs" d="M-5 0c3-4 7-4 10 0c-3 4-7 4-10 0z" style="stroke-width:1.6"/><circle r="1.4" fill="currentColor"/></g></g></g></svg>
